<svg width="32" height="32" viewBox="0 0 32 32" fill="none" xmlns="http://www.w3.org/2000/svg">
<g clip-path="url(#clip0_378_8)">
<path d="M32 12H26.5662L20.8575 2.48535C20.5743 2.01272 19.96 1.8584 19.4854 2.14259C19.0118 2.42678 18.8585 3.041 19.1427 3.51464L24.2338 12H7.76622L12.8574 3.51458C13.1416 3.04093 12.9883 2.42671 12.5147 2.14252C12.0391 1.85834 11.4268 2.01265 11.1426 2.48528L5.43389 11.9999H0V13.9999H2.17042L4.71093 27.5517C4.97653 28.9707 6.21676 30 7.66018 30H24.3399C25.7832 30 27.0235 28.9707 27.2881 27.5527L29.8295 13.9999H32.0001C32 13.9999 32 12 32 12ZM25.3222 27.1846C25.2344 27.6572 24.8213 28 24.3398 28H7.66018C7.17873 28 6.76568 27.6573 6.67681 27.1836L4.20463 13.9999H27.7954L25.3222 27.1846Z" fill="white"/>
</g>
<defs>
<clipPath id="clip0_378_8">
<rect width="32" height="32" fill="white"/>
</clipPath>
</defs>
</svg>
