<svg width="120" height="35" viewBox="0 0 120 35" fill="none" xmlns="http://www.w3.org/2000/svg">
<path fill-rule="evenodd" clip-rule="evenodd" d="M0.000530411 22.5827C-0.0102669 22.9472 0.144146 23.3008 0.43037 23.567C0.716594 23.8331 1.11162 23.9904 1.53 24.0049H1.59373C1.80497 24.0049 2.01412 23.9684 2.20899 23.8973C2.40386 23.8263 2.58056 23.7222 2.72882 23.5912C2.87708 23.4601 2.99393 23.3047 3.07257 23.1339C3.15122 22.9632 3.19009 22.7805 3.18692 22.5965V13.6329C3.18692 10.0252 5.6962 8.25611 8.72327 8.25611C11.83 8.25611 14.2995 10.0599 14.2995 13.6329V22.5827C14.2887 22.9472 14.4431 23.3008 14.7293 23.567C15.0155 23.8331 15.4105 23.9904 15.8289 24.0049H15.8767C16.088 24.0049 16.2971 23.9684 16.492 23.8973C16.6869 23.8263 16.8636 23.7222 17.0118 23.5912C17.1601 23.4601 17.2769 23.3047 17.3556 23.1339C17.4342 22.9632 17.4731 22.7805 17.4699 22.5965V13.7023C17.4699 8.67237 13.7657 5.68912 9.10564 5.68912C8.00147 5.67764 6.90636 5.86385 5.88823 6.2362C4.8701 6.60855 3.95065 7.1591 3.18692 7.85371V7.15993C3.18692 6.79193 3.01907 6.439 2.72028 6.17878C2.4215 5.91856 2.01627 5.77237 1.59373 5.77237C1.178 5.77226 0.778681 5.91368 0.481018 6.16644C0.183355 6.4192 0.0109237 6.76329 0.000530411 7.12525V22.5965V22.5827ZM31.2072 24.0743C37.1817 24.0743 41.6825 20.0157 41.6825 14.8817C41.6825 9.74773 37.1817 5.68912 31.2072 5.68912C29.8211 5.68912 28.4486 5.92689 27.1681 6.38886C25.8875 6.85083 24.7239 7.52796 23.7438 8.38157C22.7637 9.23518 21.9862 10.2486 21.4558 11.3639C20.9253 12.4791 20.6523 13.6745 20.6523 14.8817C20.6523 16.0889 20.9253 17.2843 21.4558 18.3995C21.9862 19.5148 22.7637 20.5282 23.7438 21.3818C24.7239 22.2354 25.8875 22.9126 27.1681 23.3745C28.4486 23.8365 29.8211 24.0743 31.2072 24.0743ZM31.2072 21.5073C27.1048 21.5073 23.9184 18.524 23.9184 14.8817C23.9184 11.2394 27.1048 8.25611 31.2072 8.25611C35.3097 8.25611 38.4563 11.2047 38.4563 14.8817C38.4563 18.5587 35.3097 21.5073 31.2072 21.5073ZM54.6312 24.0743C60.6057 24.0743 65.1065 20.0157 65.1065 14.8817C65.1065 9.74773 60.6057 5.68912 54.6312 5.68912C53.2451 5.68912 51.8726 5.92689 50.592 6.38886C49.3114 6.85083 48.1479 7.52796 47.1677 8.38157C46.1876 9.23518 45.4102 10.2486 44.8797 11.3639C44.3493 12.4791 44.0763 13.6745 44.0763 14.8817C44.0763 16.0889 44.3493 17.2843 44.8797 18.3995C45.4102 19.5148 46.1876 20.5282 47.1677 21.3818C48.1479 22.2354 49.3114 22.9126 50.592 23.3745C51.8726 23.8365 53.2451 24.0743 54.6312 24.0743ZM54.6312 21.5073C50.5287 21.5073 47.3423 18.524 47.3423 14.8817C47.3423 11.2394 50.5287 8.25611 54.6312 8.25611C58.7337 8.25611 61.8802 11.2047 61.8802 14.8817C61.8802 18.5587 58.7337 21.5073 54.6312 21.5073ZM71.4991 22.5827C71.4883 22.9472 71.6428 23.3008 71.929 23.567C72.2152 23.8331 72.6102 23.9904 73.0286 24.0049H73.0923C73.3036 24.0049 73.5127 23.9684 73.7076 23.8973C73.9025 23.8263 74.0792 23.7222 74.2274 23.5912C74.3757 23.4601 74.4925 23.3047 74.5712 23.1339C74.6498 22.9632 74.6887 22.7805 74.6855 22.5965V8.60299H79.266C79.459 8.60345 79.6502 8.57079 79.8287 8.50689C80.0072 8.44298 80.1695 8.34908 80.3064 8.23054C80.4432 8.112 80.5519 7.97115 80.6263 7.81602C80.7006 7.6609 80.7392 7.49454 80.7397 7.32644C80.7461 6.99272 80.6005 6.67037 80.3348 6.42986C80.0691 6.18934 79.7049 6.05024 79.3217 6.04295H66.8789C66.6859 6.04249 66.4947 6.07515 66.3161 6.13905C66.1376 6.20296 65.9753 6.29687 65.8385 6.4154C65.7016 6.53394 65.5929 6.6748 65.5186 6.82992C65.4442 6.98505 65.4057 7.15141 65.4052 7.3195C65.4113 7.65823 65.5686 7.98159 65.8436 8.22114C66.1187 8.46068 66.49 8.59763 66.8789 8.60299H71.4991V22.5827ZM83.002 22.5827C82.9912 22.9472 83.1456 23.3008 83.4319 23.567C83.7181 23.8331 84.1131 23.9904 84.5315 24.0049H84.5952C84.8065 24.0049 85.0156 23.9684 85.2105 23.8973C85.4053 23.8263 85.582 23.7222 85.7303 23.5912C85.8786 23.4601 85.9954 23.3047 86.0741 23.1339C86.1527 22.9632 86.1916 22.7805 86.1884 22.5965V8.60299H89.9324C92.1629 8.60299 93.5569 9.95587 93.5569 11.6209C93.5569 13.286 92.1231 14.6389 89.9722 14.6389H89.4943C89.2936 14.6389 89.0949 14.6734 88.9096 14.7403C88.7242 14.8073 88.5559 14.9055 88.4142 15.0292C88.2725 15.153 88.1602 15.2998 88.0838 15.4614C88.0073 15.623 87.9683 15.7962 87.9688 15.9709C87.9669 15.9778 87.9669 15.9849 87.9688 15.9917C87.9637 16.3466 88.105 16.6913 88.3671 16.963L94.7001 23.4846C94.8376 23.6476 95.0177 23.7797 95.2255 23.8702C95.4332 23.9607 95.6627 24.0068 95.8949 24.0049C96.1986 24.0067 96.4966 23.9328 96.7536 23.792C97.0107 23.6512 97.2162 23.4494 97.346 23.2102C97.4757 22.9711 97.5243 22.7046 97.486 22.4423C97.4477 22.1799 97.324 21.9325 97.1297 21.7293L92.4298 16.9075C92.6502 16.8583 92.8638 16.7885 93.067 16.6994C94.3819 16.1404 95.4391 15.2081 96.0645 14.0561C96.6899 12.904 96.8462 11.6008 96.5077 10.361C96.1692 9.12126 95.3561 8.01882 94.2022 7.23522C93.0484 6.45162 91.6225 6.03357 90.1594 6.04989H84.5833C84.3798 6.0448 84.1771 6.0747 83.9869 6.13785C83.7967 6.20101 83.6226 6.2962 83.4747 6.41797C83.3267 6.53975 83.2078 6.68572 83.1246 6.84755C83.0415 7.00938 82.9957 7.1839 82.9901 7.36113C82.9861 7.38645 82.9861 7.41212 82.9901 7.43745L83.002 22.5827ZM100.595 22.5827C100.584 22.9472 100.738 23.3008 101.025 23.567C101.311 23.8331 101.706 23.9904 102.124 24.0049H102.188C102.399 24.0049 102.608 23.9684 102.803 23.8973C102.998 23.8263 103.175 23.7222 103.323 23.5912C103.471 23.4601 103.588 23.3047 103.667 23.1339C103.746 22.9632 103.784 22.7805 103.781 22.5965V7.15993C103.781 6.79193 103.613 6.439 103.315 6.17878C103.016 5.91856 102.611 5.77237 102.188 5.77237C101.772 5.77226 101.373 5.91368 101.075 6.16644C100.778 6.4192 100.605 6.76329 100.595 7.12525C100.591 7.13655 100.591 7.14863 100.595 7.15993V22.5827ZM102.188 3.46903C102.714 3.46187 103.215 3.27684 103.587 2.9531C103.959 2.62937 104.171 2.19235 104.18 1.73458C104.18 1.27457 103.97 0.833408 103.596 0.508135C103.223 0.182863 102.716 0.000127083 102.188 0.000127083C101.929 -0.00262071 101.672 0.0392157 101.431 0.123236C101.191 0.207256 100.972 0.331805 100.787 0.489735C100.602 0.647665 100.454 0.835865 100.353 1.04354C100.252 1.25121 100.199 1.47426 100.197 1.69989C100.193 1.71119 100.193 1.72327 100.197 1.73458C100.197 2.19458 100.406 2.63574 100.78 2.96102C101.153 3.28629 101.66 3.46903 102.188 3.46903ZM107.334 19.7728C107.334 22.0276 110.202 24.0743 113.667 24.0743C117.292 24.0743 120 21.7154 120 18.975C120 15.7142 117.411 14.5001 114.902 13.841C112.552 13.1819 110.64 12.5575 110.64 10.719C110.627 10.0501 110.919 9.40398 111.452 8.9222C111.985 8.44043 112.716 8.16224 113.484 8.14857H113.707C114.434 8.1214 115.153 8.29903 115.755 8.65516C116.358 9.01128 116.813 9.52697 117.053 10.1258C117.117 10.4045 117.292 10.6546 117.547 10.8322C117.802 11.0097 118.12 11.1035 118.447 11.0971C118.634 11.098 118.82 11.0667 118.994 11.0049C119.167 10.9431 119.325 10.8521 119.459 10.7371C119.592 10.622 119.698 10.4852 119.77 10.3345C119.842 10.1838 119.88 10.0221 119.881 9.85874C119.881 7.49989 117.053 5.69606 113.707 5.69606C110.162 5.69606 107.573 7.88146 107.573 10.726C107.573 14.1602 110.361 15.0968 113.109 15.8946C115.22 16.519 116.814 17.3169 116.814 19.0513C116.814 20.3695 115.579 21.5836 113.667 21.5836C112.878 21.6052 112.103 21.3993 111.462 20.9978C110.821 20.5964 110.35 20.0219 110.122 19.3635C110.011 19.0843 109.789 18.8486 109.497 18.6984C109.204 18.5482 108.86 18.4931 108.526 18.5431C108.191 18.593 107.888 18.7447 107.67 18.9712C107.451 19.1976 107.332 19.4842 107.334 19.7798V19.7728ZM42.961 34.5295C51.0465 34.5295 56.0651 31.3728 56.9413 30.8178C57.1828 30.6726 57.3834 30.4817 57.5282 30.2594C57.673 30.0372 57.7583 29.7893 57.7778 29.5343C57.7825 29.3653 57.749 29.1971 57.6791 29.0394C57.6092 28.8817 57.5043 28.7375 57.3704 28.6151C57.2365 28.4926 57.0762 28.3944 56.8987 28.326C56.7212 28.2575 56.53 28.2202 56.3359 28.2161H56.304C55.9742 28.229 55.6558 28.3255 55.388 28.4937C51.7032 30.6198 47.3811 31.7536 42.961 31.7536C38.541 31.7536 34.2188 30.6198 30.5341 28.4937C30.2666 28.3249 29.948 28.2284 29.618 28.2161C29.2258 28.218 28.8503 28.3552 28.5741 28.5978C28.2978 28.8403 28.1433 29.1684 28.1443 29.51V29.5343C28.1668 29.7887 28.2534 30.0356 28.398 30.2574C28.5426 30.4793 28.7415 30.6706 28.9808 30.8178C29.857 31.3728 34.9154 34.5295 42.961 34.5295Z" fill="white"/>
</svg>
